<?xml version="1.0" encoding="UTF-8" standalone="no" ?>
<!DOCTYPE svg PUBLIC "-//W3C//DTD SVG 1.1//EN" "http://www.w3.org/Graphics/SVG/1.1/DTD/svg11.dtd">
<svg xmlns="http://www.w3.org/2000/svg" xmlns:xlink="http://www.w3.org/1999/xlink" version="1.1" width="1080" height="1080" viewBox="0 0 1080 1080" xml:space="preserve">
<desc>Created with Fabric.js 5.2.4</desc>
<defs>
</defs>
<g transform="matrix(1 0 0 1 540 540)" id="1291d7d1-33b2-47c2-83fe-57b2d7a159eb"  >
<rect style="stroke: none; stroke-width: 1; stroke-dasharray: none; stroke-linecap: butt; stroke-dashoffset: 0; stroke-linejoin: miter; stroke-miterlimit: 4; fill: rgb(255,255,255); fill-rule: nonzero; opacity: 1; visibility: hidden;" vector-effect="non-scaling-stroke"  x="-540" y="-540" rx="0" ry="0" width="1080" height="1080" />
</g>
<g transform="matrix(1 0 0 1 540 540)" id="2a8f8171-4cf3-4b26-9c5f-b74f93cfb8a5"  >
</g>
<g transform="matrix(NaN NaN NaN NaN 0 0)"  >
<g style=""   >
</g>
</g>
<g transform="matrix(1.75 0 0 1.75 540.23 538.84)"  >
<path style="stroke: none; stroke-width: 1; stroke-dasharray: none; stroke-linecap: butt; stroke-dashoffset: 0; stroke-linejoin: miter; stroke-miterlimit: 4; fill: rgb(255,255,255); fill-rule: nonzero; opacity: 1;" vector-effect="non-scaling-stroke"  transform=" translate(-228.08, -227.29)" d="M 432.458 330.806 C 441.252 330.806 448.384 323.674 448.384 314.88 C 448.384 306.086 441.252 298.954 432.458 298.954 L 331.599 298.954 L 331.599 155.62 L 432.45799999999997 155.62 C 441.25199999999995 155.62 448.38399999999996 148.488 448.38399999999996 139.69400000000002 C 448.38399999999996 130.9 441.25199999999995 123.76800000000001 432.45799999999997 123.76800000000001 L 331.599 123.76800000000001 L 331.599 22.909 C 331.599 14.113 324.467 6.982999999999999 315.673 6.982999999999999 C 306.877 6.982999999999999 299.747 14.113 299.747 22.909 L 299.747 123.768 L 156.414 123.768 L 156.414 22.902 C 156.414 14.108 149.28199999999998 6.976000000000001 140.488 6.976000000000001 C 131.692 6.976000000000001 124.562 14.108 124.562 22.902 L 124.562 123.769 L 23.695 123.769 C 14.901 123.769 7.769 130.901 7.769 139.695 C 7.769 148.489 14.901 155.62099999999998 23.695 155.62099999999998 L 124.56200000000001 155.62099999999998 L 124.56200000000001 298.95399999999995 L 23.695 298.95399999999995 C 14.901 298.95399999999995 7.769 306.08599999999996 7.769 314.87999999999994 C 7.769 323.6739999999999 14.901 330.8059999999999 23.695 330.8059999999999 L 124.56200000000001 330.8059999999999 L 124.56200000000001 431.6649999999999 C 124.56200000000001 440.4609999999999 131.692 447.5909999999999 140.488 447.5909999999999 C 149.282 447.5909999999999 156.414 440.4609999999999 156.414 431.6649999999999 L 156.414 330.806 L 299.74699999999996 330.806 L 299.74699999999996 431.673 C 299.74699999999996 440.467 306.87699999999995 447.599 315.67299999999994 447.599 C 324.4669999999999 447.599 331.59899999999993 440.467 331.59899999999993 431.673 L 331.59899999999993 330.806 L 432.458 330.806 z M 156.414 298.954 L 156.414 155.62 L 299.74699999999996 155.62 L 299.74699999999996 298.953 L 156.414 298.953 z" stroke-linecap="round" />
</g>
<g transform="matrix(1.75 0 0 1.75 232.81 243.07)"  >
<path style="stroke: none; stroke-width: 1; stroke-dasharray: none; stroke-linecap: butt; stroke-dashoffset: 0; stroke-linejoin: miter; stroke-miterlimit: 4; fill: rgb(255,0,0); fill-rule: nonzero; opacity: 1;" vector-effect="non-scaling-stroke"  transform=" translate(-52.89, -58.74)" d="M 27.652 106.497 L 52.887 81.256 L 78.122 106.497 C 81.232 109.607 85.306 111.163 89.382 111.163 C 93.45700000000001 111.163 97.531 109.607 100.64200000000001 106.497 C 106.864 100.284 106.864 90.19800000000001 100.64200000000001 83.97800000000001 L 75.408 58.735 L 100.641 33.492000000000004 C 106.863 27.271000000000004 106.863 17.186000000000003 100.641 10.973000000000006 C 94.42 4.752000000000006 84.34200000000001 4.752000000000006 78.12200000000001 10.973000000000006 L 52.887 36.214 L 27.652 10.973 C 21.431 4.752000000000001 11.353000000000002 4.752000000000001 5.133000000000003 10.973 C -1.0889999999999977 17.186 -1.0889999999999977 27.272 5.133000000000003 33.492 L 30.366000000000003 58.735 L 5.133 83.977 C -1.0890000000000004 90.19800000000001 -1.0890000000000004 100.284 5.133 106.49600000000001 C 8.243 109.60600000000001 12.317 111.162 16.393 111.162 C 20.468 111.163 24.542 109.607 27.652 106.497 z" stroke-linecap="round" />
</g>
<g transform="matrix(1.75 0 0 1.75 540.23 538.84)"  >
<path style="stroke: none; stroke-width: 1; stroke-dasharray: none; stroke-linecap: butt; stroke-dashoffset: 0; stroke-linejoin: miter; stroke-miterlimit: 4; fill: rgb(255,0,0); fill-rule: nonzero; opacity: 1;" vector-effect="non-scaling-stroke"  transform=" translate(-228.08, -227.29)" d="M 250.596 227.287 L 275.831 202.044 C 282.052 195.823 282.052 185.73700000000002 275.831 179.525 C 269.60900000000004 173.303 259.531 173.303 253.31 179.525 L 228.075 204.76600000000002 L 202.83999999999997 179.52500000000003 C 196.61899999999997 173.30300000000003 186.54099999999997 173.30300000000003 180.32099999999997 179.52500000000003 C 174.09999999999997 185.73800000000003 174.09999999999997 195.82400000000004 180.32099999999997 202.04400000000004 L 205.55599999999998 227.28700000000003 L 180.32099999999997 252.53000000000003 C 174.09999999999997 258.75100000000003 174.09999999999997 268.83700000000005 180.32099999999997 275.04900000000004 C 183.43099999999998 278.15900000000005 187.50699999999998 279.71500000000003 191.58099999999996 279.71500000000003 C 195.65599999999995 279.71500000000003 199.72999999999996 278.15900000000005 202.84099999999995 275.04900000000004 L 228.07599999999996 249.80800000000005 L 253.31099999999998 275.04900000000004 C 256.421 278.15900000000005 260.49699999999996 279.71500000000003 264.57099999999997 279.71500000000003 C 268.647 279.71500000000003 272.71999999999997 278.15900000000005 275.832 275.04900000000004 C 282.053 268.836 282.053 258.75000000000006 275.832 252.53000000000003 L 250.596 227.287 z" stroke-linecap="round" />
</g>
<g transform="matrix(1.75 0 0 1.75 540.22 243.07)"  >
<path style="stroke: none; stroke-width: 1; stroke-dasharray: none; stroke-linecap: butt; stroke-dashoffset: 0; stroke-linejoin: miter; stroke-miterlimit: 4; fill: rgb(0,26,255); fill-rule: nonzero; opacity: 1;" vector-effect="non-scaling-stroke"  transform=" translate(-228.07, -58.73)" d="M 228.072 117.47 C 260.461 117.47 286.807 91.124 286.807 58.735 C 286.807 26.346 260.461 0 228.072 0 C 195.683 0 169.337 26.346 169.337 58.735 C 169.337 91.123 195.684 117.47 228.072 117.47 z M 228.072 31.852 C 242.894 31.852 254.955 43.913 254.955 58.735 C 254.955 73.557 242.894 85.618 228.072 85.618 C 213.25 85.618 201.189 73.55699999999999 201.189 58.735 C 201.189 43.913 213.25 31.852 228.072 31.852 z" stroke-linecap="round" />
</g>
<g transform="matrix(1.75 0 0 1.75 836.11 836.93)"  >
<path style="stroke: none; stroke-width: 1; stroke-dasharray: none; stroke-linecap: butt; stroke-dashoffset: 0; stroke-linejoin: miter; stroke-miterlimit: 4; fill: rgb(0,26,255); fill-rule: nonzero; opacity: 1;" vector-effect="non-scaling-stroke"  transform=" translate(-396.69, -397.16)" d="M 396.695 338.426 C 364.306 338.426 337.96 364.772 337.96 397.161 C 337.96 429.55 364.306 455.896 396.695 455.896 C 429.08299999999997 455.896 455.43 429.55 455.43 397.161 C 455.43 364.772 429.083 338.426 396.695 338.426 z M 396.695 424.044 C 381.873 424.044 369.812 411.983 369.812 397.161 C 369.812 382.339 381.873 370.278 396.695 370.278 C 411.517 370.278 423.578 382.339 423.578 397.161 C 423.578 411.983 411.517 424.044 396.695 424.044 z" stroke-linecap="round" />
</g>
</svg>